<svg width="26" height="26" viewBox="0 0 26 26" fill="none" xmlns="http://www.w3.org/2000/svg">
<path d="M22.3235 0.203125C21.3891 0.203125 20.5158 0.56875 19.8658 1.21875L17.733 3.35156L16.7376 2.35617C15.7016 1.29992 14.0156 1.3 13 2.33594L12.4311 2.90485C12.1873 3.1486 12.1873 3.53437 12.4311 3.75781L13.1627 4.48898C11.9845 5.78898 11.0704 7.35313 10.5423 9.03906C10.4407 9.36406 10.6236 9.70953 10.9283 9.8111C10.9892 9.83141 11.0498 9.83133 11.1108 9.83133C11.3748 9.83133 11.5984 9.66891 11.6999 9.40485C12.1874 7.90172 12.9796 6.50016 14.0359 5.34235L14.9095 6.21555C13.2845 8.06398 12.3703 10.4814 12.3906 12.9595C12.3906 13.2845 12.675 13.5689 13 13.5689C13.3453 13.5689 13.6094 13.2845 13.6094 12.9595C13.5891 10.8064 14.3608 8.71414 15.7827 7.08914L16.6562 7.96234C15.4781 9.34359 14.828 11.1311 14.8484 12.9389V13.3452C14.8484 13.6905 15.1124 13.9545 15.4577 13.9545C15.803 13.9545 16.0671 13.6905 16.0671 13.3452V12.9389C16.0468 11.4358 16.5752 9.97352 17.5298 8.8157L18.2202 9.50641C18.342 9.62828 18.5048 9.6889 18.647 9.6889C18.7892 9.6889 18.9516 9.62828 19.0735 9.50641L19.642 8.9375C20.678 7.90156 20.678 6.23586 19.642 5.19992L18.647 4.20453L20.7188 2.09235C21.1453 1.66578 21.7141 1.42188 22.3235 1.42188C23.5626 1.42188 24.5781 2.43742 24.5781 3.67648V23.1562C24.5781 23.9484 23.9484 24.5781 23.1562 24.5781H7.49539C6.15477 24.5781 4.9157 23.7859 4.34695 22.5469L1.76703 16.8594H21.3281C21.6734 16.8594 21.9375 16.5953 21.9375 16.25C21.9375 15.9047 21.6734 15.6406 21.3281 15.6406H0.8125C0.609375 15.6406 0.40625 15.7423 0.304687 15.9251C0.182812 16.1079 0.182971 16.3111 0.264221 16.5142L3.25 23.0749C4.00156 24.7405 5.66727 25.8171 7.49539 25.8171H23.1562C24.6187 25.8171 25.7969 24.639 25.7969 23.1765V3.67648C25.7969 1.76711 24.2329 0.203125 22.3235 0.203125ZM14.8587 2.79813C15.2243 2.79813 15.5898 2.93531 15.864 3.20953L18.728 6.07352C19.2764 6.62195 19.2764 7.5361 18.728 8.08453L18.5859 8.22656L13.7109 3.35156L13.853 3.20953C14.1272 2.93531 14.493 2.79813 14.8587 2.79813ZM10.5827 11.6392C10.2374 11.6189 9.9532 11.8827 9.93289 12.2077C9.91258 12.4718 9.91266 12.7359 9.91266 13V13.4062C9.91266 13.7516 10.1767 14.0156 10.522 14.0156C10.8673 14.0156 11.1314 13.7516 11.1314 13.4062V13C11.1314 12.7563 11.1313 12.5125 11.1516 12.2891C11.172 11.9438 10.9077 11.6595 10.5827 11.6392Z" fill="#1D1D1D"/>
</svg>
