<svg width="26" height="26" viewBox="0 0 26 26" fill="none" xmlns="http://www.w3.org/2000/svg">
<path d="M25.1875 16.4531H24.7812V8.9375C24.7812 7.475 23.6031 6.29688 22.1406 6.29688H3.85938C2.39688 6.29688 1.21875 7.475 1.21875 8.9375V16.4531H0.8125C0.467187 16.4531 0.203125 16.7172 0.203125 17.0625V22.1406C0.203125 22.4859 0.467187 22.75 0.8125 22.75H1.21875V25.1875C1.21875 25.5328 1.48281 25.7969 1.82812 25.7969C2.17344 25.7969 2.4375 25.5328 2.4375 25.1875V22.75H23.5625V25.1875C23.5625 25.5328 23.8266 25.7969 24.1719 25.7969C24.5172 25.7969 24.7812 25.5328 24.7812 25.1875V22.75H25.1875C25.5328 22.75 25.7969 22.4859 25.7969 22.1406V17.0625C25.7969 16.7172 25.5328 16.4531 25.1875 16.4531ZM2.4375 8.9375C2.4375 8.14531 3.06719 7.51562 3.85938 7.51562H22.1406C22.9328 7.51562 23.5625 8.14531 23.5625 8.9375V16.4531H22.1406C22.1406 14.9906 20.9625 13.8125 19.5 13.8125H16.6562C15.1938 13.8125 14.0156 14.9906 14.0156 16.4531H11.9844C11.9844 14.9906 10.8062 13.8125 9.34375 13.8125H6.5C5.0375 13.8125 3.85938 14.9906 3.85938 16.4531H2.4375V8.9375ZM24.5781 21.5312H1.42188V17.6719H24.5781V21.5312Z" fill="#1D1D1D"/>
</svg>
