<svg width="26" height="26" viewBox="0 0 26 26" fill="none" xmlns="http://www.w3.org/2000/svg">
<path d="M13 5.44391C10.7656 5.44391 9.50633 5.50461 7.29227 5.60617H7.08914C6.09383 5.6468 5.22015 6.25609 4.8139 7.14984L2.57953 12.1062C2.57953 12.1265 2.5593 12.147 2.5593 12.1673C1.88898 12.1063 1.32039 12.025 0.893829 11.9844C0.568829 11.9437 0.263983 12.1874 0.223358 12.5124C0.182733 12.8374 0.426404 13.1423 0.751404 13.1829C2.84359 13.447 8.24687 14.0156 13 14.0156C17.7531 14.0156 23.1564 13.4469 25.2486 13.2031C25.5939 13.1625 25.8375 12.8577 25.7969 12.5327C25.7563 12.2077 25.4514 11.964 25.1264 12.0046C24.6998 12.0452 24.1313 12.1266 23.4609 12.1875C23.4609 12.1672 23.4407 12.1467 23.4407 12.1264L21.1861 7.1907C20.7798 6.29695 19.9062 5.68766 18.9109 5.64703H18.7077C16.4937 5.50485 15.2344 5.44391 13 5.44391ZM13 6.66266C15.2141 6.66266 16.3923 6.72336 18.647 6.82492H18.8502C19.3783 6.84523 19.8455 7.17015 20.0689 7.65765L22.1609 12.2891C19.6218 12.5328 16.1687 12.7969 13 12.7969C9.83125 12.7969 6.3782 12.5328 3.83914 12.2891L5.93109 7.65765C6.15453 7.17015 6.62172 6.84523 7.14984 6.82492H7.35297C9.60765 6.70305 10.7859 6.66266 13 6.66266ZM2.84375 14.8281C1.38125 14.8281 0.203125 16.0063 0.203125 17.4688V21.125C0.203125 21.9172 0.710938 22.5875 1.42188 22.8516V25.1875C1.42188 25.5328 1.68594 25.7969 2.03125 25.7969H6.09375C6.43906 25.7969 6.70312 25.5328 6.70312 25.1875V22.9531H19.2969V25.1875C19.2969 25.5328 19.5609 25.7969 19.9062 25.7969H23.9688C24.3141 25.7969 24.5781 25.5328 24.5781 25.1875V22.8516C25.2891 22.6078 25.7969 21.9172 25.7969 21.125V17.4688C25.7969 16.0063 24.6187 14.8281 23.1562 14.8281C21.6938 14.8281 20.5156 16.0063 20.5156 17.4688C20.5156 18.9312 21.6938 20.1094 23.1562 20.1094C23.6844 20.1094 24.1719 19.947 24.5781 19.6829V21.125C24.5781 21.4703 24.3141 21.7344 23.9688 21.7344H2.03125C1.68594 21.7344 1.42188 21.4703 1.42188 21.125V19.6829C1.82812 19.947 2.31562 20.1094 2.84375 20.1094C4.30625 20.1094 5.48438 18.9312 5.48438 17.4688C5.48438 16.0063 4.30625 14.8281 2.84375 14.8281ZM2.84375 16.0469C3.63594 16.0469 4.26562 16.6766 4.26562 17.4688C4.26562 18.2609 3.63594 18.8906 2.84375 18.8906C2.05156 18.8906 1.42188 18.2609 1.42188 17.4688C1.42188 16.6766 2.05156 16.0469 2.84375 16.0469ZM23.1562 16.0469C23.9484 16.0469 24.5781 16.6766 24.5781 17.4688C24.5781 18.2609 23.9484 18.8906 23.1562 18.8906C22.3641 18.8906 21.7344 18.2609 21.7344 17.4688C21.7344 16.6766 22.3641 16.0469 23.1562 16.0469ZM8.53125 18.4844C8.18594 18.4844 7.92188 18.7484 7.92188 19.0938C7.92188 19.4391 8.18594 19.7031 8.53125 19.7031H17.4688C17.8141 19.7031 18.0781 19.4391 18.0781 19.0938C18.0781 18.7484 17.8141 18.4844 17.4688 18.4844H8.53125ZM2.64062 22.9531H5.48438V24.5781H2.64062V22.9531ZM20.5156 22.9531H23.3594V24.5781H20.5156V22.9531Z" fill="#1D1D1D"/>
</svg>
