<svg width="155" height="17" viewBox="0 0 155 17" fill="none" xmlns="http://www.w3.org/2000/svg">
<path d="M25.423 10.5563L23.3997 5.19017C22.9379 3.89263 22.586 2.79301 22.2122 1.03363H16.1423C16.4722 1.51746 16.868 2.17723 17.3079 3.03493L13.9651 10.1824L10.7762 4.37645C10.2044 3.25485 9.72057 2.28719 9.19275 1.03363H3.14489C3.71669 1.67141 4.22251 2.2652 4.66235 2.837L1.31953 13.2173C0.967658 14.251 0.417852 15.7025 0 16.4502L2.77102 16.4282C2.63907 15.5265 2.92497 14.3169 3.18887 13.2173L5.80595 4.46442C6.33376 5.30013 6.81759 6.13583 7.38939 7.05951L11.7219 14.9327V14.9547L12.5356 16.4062H13.1733L17.9897 4.50841C18.3635 5.32212 18.7374 6.24579 19.1332 7.30142L21.3984 13.8111C21.6843 14.8228 21.9043 15.7464 21.8823 16.4282H28.26C27.0724 14.8448 26.1488 12.4916 25.423 10.5563Z" fill="#1D1D1D"/>
<path d="M51.246 10.7762C48.1451 15.9444 45.3521 15.4605 36.5552 15.4166C36.4453 14.8448 36.3353 13.9871 36.3353 12.7115V8.7969H49.4207V7.78525H36.3353V4.77232C36.3353 3.47477 36.4453 2.61708 36.5552 2.04528C44.5824 2.00129 47.4194 1.89133 50.3663 6.70763L51.1801 6.61966L50.2124 1.03363H30.9032C30.9032 1.03363 31.497 1.73739 31.497 4.75032L31.431 12.7115C31.431 15.7244 30.9032 16.4282 30.9032 16.4282L51.0921 16.5162L52.0597 10.8642L51.246 10.7762Z" fill="#1D1D1D"/>
<path d="M70.8215 10.0505C74.4502 9.41268 77.0233 7.47736 77.0233 5.12419C77.0233 2.44114 75.132 0.813713 66.4231 0.813713H56.4606C56.4606 0.813713 57.2963 1.29754 57.2743 4.75032L57.2083 12.7115C57.1863 15.7244 56.6145 16.4282 56.6145 16.4282H62.7064C62.7064 16.4282 62.1126 15.7244 62.1126 12.7115V9.41268C63.1023 9.45666 64.2458 9.89651 65.7413 10.7542C66.599 11.26 68.2924 12.5356 71.0854 15.7244C71.2394 15.9004 71.4813 16.2743 71.4813 16.4282H79.5085V16.0763C77.4852 15.9444 73.8565 12.6235 70.8215 10.0505ZM62.1126 4.99224C62.1126 3.65071 62.2006 2.837 62.2885 2.04528C63.0363 1.91332 63.828 1.82536 65.3235 1.82536C68.9962 1.82536 72.0751 3.07891 72.0751 6.13583C72.0751 8.29107 69.59 9.39069 67.2148 9.39069C64.7297 9.39069 63.2562 8.75291 62.1126 8.09314V4.99224Z" fill="#1D1D1D"/>
<path d="M103.084 11.458L102.688 10.7762C101.215 12.7555 98.7518 13.9431 95.0571 13.9431C90.5267 13.9431 85.6225 10.6003 85.6225 6.42173C85.6225 3.76067 87.9097 1.67141 90.9006 1.67141C96.8825 1.67141 101.809 7.60931 101.809 7.60931L102.886 2.28719C102.886 2.28719 99.8295 0 94.1775 0C87.6677 0 82.3676 3.58473 82.3676 9.21475C82.3676 13.6792 87.2059 17 92.638 17C98.202 17 101.941 13.4592 103.084 11.458Z" fill="#1D1D1D"/>
<path d="M126.286 10.7762C123.185 15.9444 120.392 15.4605 111.595 15.4166C111.485 14.8448 111.375 13.9871 111.375 12.7115V8.7969H124.461V7.78525H111.375V4.77232C111.375 3.47477 111.485 2.61708 111.595 2.04528C119.622 2.00129 122.459 1.89133 125.406 6.70763L126.22 6.61966L125.252 1.03363H105.943C105.943 1.03363 106.537 1.73739 106.537 4.75032L106.471 12.7115C106.471 15.7244 105.943 16.4282 105.943 16.4282L126.132 16.5162L127.1 10.8642L126.286 10.7762Z" fill="#1D1D1D"/>
<path d="M145.861 10.0505C149.49 9.41268 152.063 7.47736 152.063 5.12419C152.063 2.44114 150.172 0.813713 141.463 0.813713H131.501C131.501 0.813713 132.336 1.29754 132.314 4.75032L132.248 12.7115C132.226 15.7244 131.654 16.4282 131.654 16.4282H137.746C137.746 16.4282 137.153 15.7244 137.153 12.7115V9.41268C138.142 9.45666 139.286 9.89651 140.781 10.7542C141.639 11.26 143.332 12.5356 146.125 15.7244C146.279 15.9004 146.521 16.2743 146.521 16.4282H154.548V16.0763C152.525 15.9444 148.896 12.6235 145.861 10.0505ZM137.153 4.99224C137.153 3.65071 137.24 2.837 137.328 2.04528C138.076 1.91332 138.868 1.82536 140.363 1.82536C144.036 1.82536 147.115 3.07891 147.115 6.13583C147.115 8.29107 144.63 9.39069 142.255 9.39069C139.77 9.39069 138.296 8.75291 137.153 8.09314V4.99224Z" fill="#1D1D1D"/>
</svg>
