<svg width="26" height="26" viewBox="0 0 26 26" fill="none" xmlns="http://www.w3.org/2000/svg">
<g clip-path="url(#clip0)">
<path d="M25.9502 4.94975C24.9914 5.37117 23.9677 5.65825 22.8897 5.78933C23.9882 5.12742 24.8332 4.08417 25.233 2.83942C24.2027 3.44067 23.0609 3.87833 21.8454 4.12208C20.8747 3.08317 19.4913 2.43317 17.9552 2.43317C15.0117 2.43317 12.6252 4.81975 12.6252 7.75992C12.6252 8.18242 12.6739 8.58867 12.7627 8.97758C8.33192 8.7685 4.40483 6.64083 1.77667 3.42442C1.31408 4.20658 1.05517 5.1155 1.05517 6.10567C1.05517 7.95817 1.99767 9.58642 3.4255 10.543C2.55125 10.5148 1.729 10.2743 1.01183 9.87567V9.94175C1.01183 12.5255 2.84592 14.6802 5.28667 15.171C4.83925 15.2912 4.36692 15.3563 3.88267 15.3563C3.5425 15.3563 3.21642 15.3237 2.89033 15.2631C3.57392 17.3788 5.53908 18.9215 7.878 18.9648C6.058 20.3938 3.75158 21.2453 1.2675 21.2453C0.845 21.2453 0.423583 21.2203 0 21.1727C2.37142 22.6828 5.16533 23.5658 8.18675 23.5658C17.9952 23.5658 23.3523 15.4451 23.3523 8.41425C23.3523 8.18783 23.3523 7.95925 23.3361 7.73175C24.3772 6.98533 25.2861 6.04175 26.0011 4.97142L25.9502 4.94975Z" fill="white"/>
</g>
<defs>
<clipPath id="clip0">
<rect width="26" height="26" fill="white"/>
</clipPath>
</defs>
</svg>
